name 900045_2.mot																																																																																																																																												
datacolumns 141																																																																																																																																												
datarows 5																																																																																																																																												
range 1.02499998 1.05833328																																																																																																																																												
endheader																																																																																																																																												

                time	           pelvis_tx	           pelvis_ty	           pelvis_tz	         pelvis_tilt	         pelvis_list	     pelvis_rotation	       hip_flexion_r	     hip_adduction_r	      hip_rotation_r	        knee_angle_r	       ankle_angle_r	    subtalar_angle_r	         mtp_angle_r	       hip_flexion_l	     hip_adduction_l	      hip_rotation_l	        knee_angle_l	       ankle_angle_l	    subtalar_angle_l	         mtp_angle_l	    lumbar_extension	      lumbar_bending	     lumbar_rotation	    ground_marker_px	    ground_marker_py	    ground_marker_pz	    ground_marker_px	    ground_marker_py	    ground_marker_pz	    ground_marker_px	    ground_marker_py	    ground_marker_pz	    ground_marker_px	    ground_marker_py	    ground_marker_pz	    ground_marker_px	    ground_marker_py	    ground_marker_pz	    ground_marker_px	    ground_marker_py	    ground_marker_pz	    ground_marker_px	    ground_marker_py	    ground_marker_pz	    ground_marker_px	    ground_marker_py	    ground_marker_pz	    ground_marker_px	    ground_marker_py	    ground_marker_pz	    ground_marker_px	    ground_marker_py	    ground_marker_pz	    ground_marker_px	    ground_marker_py	    ground_marker_pz	    ground_marker_px	    ground_marker_py	    ground_marker_pz	    ground_marker_px	    ground_marker_py	    ground_marker_pz	    ground_marker_px	    ground_marker_py	    ground_marker_pz	    ground_marker_px	    ground_marker_py	    ground_marker_pz	    ground_marker_px	    ground_marker_py	    ground_marker_pz	    ground_marker_px	    ground_marker_py	    ground_marker_pz	    ground_marker_px	    ground_marker_py	    ground_marker_pz	    ground_marker_px	    ground_marker_py	    ground_marker_pz	    ground_marker_px	    ground_marker_py	    ground_marker_pz	    ground_marker_px	    ground_marker_py	    ground_marker_pz	    ground_marker_px	    ground_marker_py	    ground_marker_pz	    ground_marker_px	    ground_marker_py	    ground_marker_pz	    ground_marker_px	    ground_marker_py	    ground_marker_pz	    ground_marker_px	    ground_marker_py	    ground_marker_pz	    ground_marker_px	    ground_marker_py	    ground_marker_pz	    ground_marker_px	    ground_marker_py	    ground_marker_pz	    ground_marker_px	    ground_marker_py	    ground_marker_pz	    ground_marker_px	    ground_marker_py	    ground_marker_pz	    ground_marker_px	    ground_marker_py	    ground_marker_pz	    ground_marker_px	    ground_marker_py	    ground_marker_pz	    ground_marker_px	    ground_marker_py	    ground_marker_pz	    ground_marker_px	    ground_marker_py	    ground_marker_pz	    ground_marker_px	    ground_marker_py	    ground_marker_pz	    ground_marker_px	    ground_marker_py	    ground_marker_pz	    ground_marker_px	    ground_marker_py	    ground_marker_pz	    ground_marker_px	    ground_marker_py	    ground_marker_pz	    ground_marker_px	    ground_marker_py	    ground_marker_pz	    ground_marker_px	    ground_marker_py	    ground_marker_pz
1.02499998	1.5664649	0.95961916	-0.2456138	-5.59758186	2.10625768	-1.78700817	2.18584156	-7.80228519	11.01118565	-0.66042906	5.0631218	0	0	-0.31629181	-2.06660986	5.37174606	-1.03311348	6.66793489	0	0	1.85975099	1.97135735	-4.71079588	1.47207332	0.88169521	-0.2514686	1.46900225	0.87977064	-0.17634131	1.47514439	0.88361979	-0.3265959	1.44234896	0.46984133	-0.13177234	1.43194985	0.46100253	-0.35455868	1.40545607	0.06984944	-0.12874615	1.38286936	0.07121683	-0.36489862	1.5664649	0.95961916	-0.2456138	1.56159115	0.9565649	-0.12638995	1.57133853	0.96267343	-0.36483765	1.38217056	1.01841402	-0.2196027	1.38867629	1.01694059	-0.30463484	1.45163441	0.47548723	-0.07429057	1.43991685	0.46398434	-0.41193146	1.42708838	0.47647548	-0.18355201	1.42781925	0.46559331	-0.30080181	1.39096844	0.0714675	-0.0914971	1.36509681	0.07437176	-0.39947006	1.4154917	0.08380139	-0.15820837	1.39156389	0.08381021	-0.33713889	1.34282339	0.04259244	-0.14404802	1.31757987	0.04287495	-0.35208479	1.48999095	1.36989582	-0.2337922	1.57071137	1.20550048	-0.24460153	1.37733173	1.43713045	-0.23761876	1.49942517	1.35870492	-0.18148038	1.51292336	1.36464763	-0.28882369	1.52572823	0.03926983	-0.0996702	1.50048757	0.04127751	-0.40184692	1.50637579	0.59082872	-0.00931089	1.59582591	0.55300748	-0.34117058	1.52208006	0.65073609	-0.08205339	1.53492463	0.61849606	-0.38107514	1.51344788	0.56348687	-0.0969348	1.50884271	0.53589457	-0.38503131	1.41753495	0.20482449	-0.00534164	1.4056251	0.21210784	-0.47925705	1.40645385	0.17206776	-0.07796892	1.38464463	0.17410648	-0.41027471
1.0333333	1.56641006	0.95964122	-0.24569096	-5.60011673	2.10141397	-1.80241036	2.20349026	-7.79826736	11.02192116	-0.67615253	5.06341982	0	0	-0.33533955	-2.05483198	5.43074703	-0.99284601	6.64574289	0	0	1.87905395	1.90644586	-4.7135973	1.47201562	0.88172144	-0.25155491	1.46892715	0.87980914	-0.17642801	1.47510409	0.88363373	-0.32668179	1.44236541	0.46983305	-0.1318178	1.43174624	0.46099994	-0.35450587	1.40545845	0.06985857	-0.1287505	1.38279772	0.07120713	-0.36489052	1.56641006	0.95964122	-0.24569096	1.56151128	0.95660806	-0.12652704	1.57130897	0.96267438	-0.36485487	1.38219142	1.01840699	-0.21961693	1.38859713	1.01698339	-0.30459964	1.45164609	0.47548646	-0.07433602	1.43978488	0.46395186	-0.41187021	1.42710972	0.47634518	-0.18331334	1.42809105	0.46566978	-0.30073735	1.39096785	0.07148132	-0.09150288	1.36506975	0.07435501	-0.39948544	1.4155966	0.08380993	-0.15821946	1.39152145	0.0837482	-0.3371754	1.34282327	0.04259812	-0.14406133	1.31759512	0.04286799	-0.35208204	1.48992705	1.36999667	-0.23380922	1.57068861	1.20560634	-0.24438557	1.37723517	1.43719089	-0.23759905	1.49936688	1.35888267	-0.18159609	1.51285827	1.36467552	-0.28871337	1.52573061	0.03926746	-0.09964275	1.50049555	0.0412691	-0.40182874	1.50638533	0.59083992	-0.00931303	1.59589314	0.55300063	-0.34120393	1.522035	0.65071005	-0.08207181	1.53494525	0.61853898	-0.38111278	1.5134573	0.56357932	-0.09681826	1.50904536	0.53616434	-0.3850137	1.41756678	0.20481826	-0.0053834	1.40565252	0.21208347	-0.4793289	1.40654814	0.17213479	-0.07793526	1.38473272	0.17406981	-0.41024673
1.04166663	1.56635952	0.95966226	-0.24574707	-5.60198402	2.09435391	-1.80553603	2.21460247	-7.79320002	11.02390862	-0.68862242	5.0660696	0	0	-0.34769726	-2.04792261	5.48122358	-0.96373147	6.62707615	0	0	1.888556	1.79709113	-4.67083883	1.47196233	0.88174492	-0.25160199	1.46887267	0.87984282	-0.17647488	1.475052	0.88364702	-0.32672909	1.44237459	0.46983609	-0.1318402	1.43158364	0.46098962	-0.35445133	1.40544426	0.06989219	-0.12876689	1.382743	0.07119955	-0.36488929	1.56635952	0.95966226	-0.24574707	1.56146014	0.95664608	-0.12661746	1.57125878	0.96267843	-0.36487669	1.38221884	1.01840746	-0.21963891	1.38851976	1.01701427	-0.30460656	1.45165503	0.47549391	-0.07435879	1.43967307	0.46391979	-0.41180959	1.42714393	0.47621438	-0.18318215	1.42848372	0.46561825	-0.30065098	1.39095283	0.07151652	-0.09151954	1.36504698	0.07434372	-0.39950085	1.41562772	0.0838609	-0.15819445	1.39142549	0.08379278	-0.33718401	1.34282577	0.0426153	-0.14408344	1.31762099	0.04288416	-0.35209569	1.48984027	1.37012005	-0.23382287	1.57060945	1.20571685	-0.24413757	1.37716901	1.43727434	-0.23762685	1.49934196	1.3591187	-0.18173224	1.51270902	1.3646841	-0.28859866	1.52572095	0.03927296	-0.0996	1.50051332	0.04127614	-0.4018355	1.50637734	0.59084302	-0.00931113	1.59592903	0.55295169	-0.3411589	1.5220027	0.65066123	-0.08212157	1.53494525	0.61853898	-0.38111278	1.51346707	0.56361592	-0.09676605	1.50934303	0.53639418	-0.38494462	1.41760266	0.20480743	-0.00541861	1.40568733	0.21205999	-0.47938022	1.4066354	0.17226201	-0.07792959	1.38465476	0.17406321	-0.41039741
1.04999995	1.56631827	0.95968443	-0.24576786	-5.59827232	2.08233094	-1.79270494	2.21173382	-7.78209448	11.00923824	-0.69454241	5.06936216	0	0	-0.35151386	-2.05416393	5.50936079	-0.95800799	6.61914158	0	0	1.97334838	1.8141793	-4.71196079	1.4719255	0.88175952	-0.25158635	1.46885669	0.87986714	-0.17645814	1.47499418	0.88365185	-0.32671455	1.44238245	0.46984941	-0.13184145	1.43151999	0.46096745	-0.35441786	1.4054352	0.06993122	-0.1287919	1.38272381	0.07119964	-0.36489466	1.56631827	0.95968443	-0.24576786	1.56145227	0.9566837	-0.12663741	1.5711844	0.96268517	-0.36489832	1.38225758	1.01839769	-0.21968494	1.38844872	1.01702285	-0.30468667	1.45166337	0.47550508	-0.07435988	1.43962228	0.46389335	-0.41177458	1.42712235	0.47624373	-0.18324536	1.4279139	0.4657374	-0.30086517	1.39094412	0.07155403	-0.09154445	1.36503565	0.07434452	-0.39951029	1.41557109	0.08385421	-0.15823181	1.39133215	0.08385246	-0.33717489	1.34282529	0.04263104	-0.1440963	1.31765127	0.04290987	-0.35211715	1.489802	1.3702234	-0.23384775	1.57082629	1.20594382	-0.24413322	1.37703562	1.43720496	-0.23771346	1.49929702	1.35923398	-0.18177113	1.51270378	1.36482477	-0.28859463	1.52570367	0.03927431	-0.09960143	1.50053525	0.04130015	-0.40186024	1.50636816	0.59084636	-0.00930399	1.59594333	0.55288261	-0.34107134	1.52201498	0.65062642	-0.08214696	1.53496587	0.61858195	-0.38115045	1.51346231	0.5636273	-0.09680169	1.50899184	0.53610909	-0.38506487	1.41763973	0.20479479	-0.00544317	1.40572774	0.21204922	-0.47939986	1.40654778	0.17234626	-0.07795315	1.38462877	0.17405844	-0.41045156
1.05833328	1.56629252	0.95970696	-0.24575803	-5.58705139	2.06628227	-1.77020478	2.19523716	-7.76530695	10.97976875	-0.69557017	5.07310438	0	0	-0.3490591	-2.0745039	5.50762081	-0.9777832	6.62496376	0	0	1.99232543	1.90828586	-4.89930916	1.4719131	0.88176131	-0.25152165	1.46887922	0.87987942	-0.17639175	1.47494698	0.88364321	-0.32665151	1.44239867	0.46986768	-0.13182817	1.43157375	0.46095151	-0.3544223	1.40544367	0.06995918	-0.12881008	1.38273692	0.07120484	-0.36490798	1.56629252	0.95970696	-0.24575803	1.56148076	0.95672232	-0.12660255	1.57110417	0.96269161	-0.36491352	1.38229549	1.01836896	-0.21975759	1.38838792	1.01700866	-0.30483338	1.45167601	0.47551623	-0.07434535	1.43964934	0.46389139	-0.41178209	1.42711437	0.47636598	-0.18333849	1.42708743	0.46572521	-0.30116364	1.39095032	0.07157958	-0.09156334	1.36503232	0.07435436	-0.39951473	1.41554141	0.08381981	-0.15827493	1.391307	0.08383116	-0.33716151	1.34281588	0.04262739	-0.14408213	1.31766844	0.04292279	-0.35212606	1.4896996	1.37031364	-0.23389694	1.57082093	1.20608068	-0.24416047	1.37682211	1.43729615	-0.23789881	1.4990474	1.3592602	-0.18180256	1.5127629	1.36499584	-0.28858882	1.52568114	0.03926672	-0.09970693	1.50055265	0.04133317	-0.40189454	1.50636339	0.59084308	-0.00929209	1.59593678	0.55282182	-0.34096706	1.52202976	0.65070707	-0.08210986	1.53495038	0.61853272	-0.38110238	1.51345754	0.56363869	-0.09683733	1.50843155	0.53559428	-0.38520488	1.41767383	0.20478632	-0.00545711	1.40577197	0.21205834	-0.47939631	1.40622389	0.1723197	-0.07806218	1.3847425	0.17404872	-0.41036707
